<svg width="75" height="68" viewBox="0 0 75 68" fill="none" xmlns="http://www.w3.org/2000/svg">
<path d="M47.5007 56.587C51.8991 56.587 55.6296 55.487 57.4757 54.4659L58.1038 49.3613L57.6718 49.3222C56.1405 53.5628 52.8413 55.8011 48.6007 55.8011C40.4327 55.8011 35.9562 48.7331 35.9952 41.3503C35.9952 33.3394 40.8249 29.1769 47.0687 29.1769C51.7421 29.1769 55.4726 31.5722 57.0038 35.1456L57.3968 35.0675L57.2397 30.3941C55.7085 29.4128 51.7812 28.4308 48.4038 28.4308C39.1757 28.4308 32.6968 34.6355 32.6968 42.9995C32.6968 51.5605 38.4694 56.587 47.5007 56.587Z" fill="#F6F6F6"/>
<path d="M40.6709 45.657C41.4561 45.657 42.4771 45.5781 43.0662 45.382V44.9109C42.8701 44.9499 42.6732 44.9499 42.4381 44.9499C41.1029 44.9499 40.3178 43.6538 38.4326 38.9421C36.5475 34.1116 35.8014 31.7163 30.9717 31.0882C36.0764 30.4991 38.7467 27.7109 38.7467 24.0195C38.7467 20.5249 36.3904 17.8937 28.4193 17.8937H20.6826V18.4038C21.9006 18.7577 22.2537 19.6609 22.2537 22.8812V40.3945C22.2537 43.6148 21.9006 44.5179 20.6826 44.8718V45.382H27.0443V44.8718C25.8271 44.5179 25.474 43.6148 25.474 40.3945V31.2062H27.9873C32.699 31.2062 33.0131 33.9546 35.2912 39.3741C37.0186 43.4577 37.6475 45.657 40.6709 45.657ZM25.474 30.6171V18.5609C26.1021 18.5218 26.7303 18.4827 27.3193 18.4827C33.1311 18.4827 35.4092 21.4281 35.4092 24.9226C35.4092 28.2609 33.2881 30.6171 28.7725 30.6171H25.474Z" fill="#F6F6F6"/>
<path d="M18.2377 43.9902C18.319 43.9902 18.4245 43.9824 18.4846 43.9621V43.9137C18.4643 43.9176 18.444 43.9176 18.4198 43.9176C18.2823 43.9176 18.201 43.784 18.0073 43.298C17.8127 42.7996 17.7354 42.5527 17.2377 42.4879C17.7643 42.427 18.0393 42.1395 18.0393 41.759C18.0393 41.3988 17.7963 41.127 16.9745 41.127H16.176V41.1801C16.3018 41.216 16.3385 41.309 16.3385 41.6418V43.448C16.3385 43.7801 16.3018 43.873 16.176 43.9098V43.9621H16.8323V43.9098C16.7065 43.873 16.6706 43.7801 16.6706 43.448V42.5004H16.9299C17.4159 42.5004 17.4479 42.7832 17.6831 43.3426C17.8612 43.7637 17.926 43.9902 18.2377 43.9902ZM16.6706 42.4395V41.1957C16.7354 41.1918 16.8002 41.1879 16.8604 41.1879C17.4604 41.1879 17.6948 41.4918 17.6948 41.852C17.6948 42.1965 17.476 42.4395 17.0104 42.4395H16.6706Z" fill="#F6F6F6"/>
<path d="M20.7368 44.0027C21.4173 44.0027 22.1704 43.5573 22.1704 42.5566C22.1704 41.5644 21.4212 41.0948 20.7368 41.0948C19.8782 41.0948 19.2954 41.7105 19.2954 42.5402C19.2954 43.5448 20.0485 44.0027 20.7368 44.0027ZM19.6188 42.3058C19.5946 41.6456 19.9556 41.1878 20.5712 41.1878C21.2954 41.1878 21.8267 41.9777 21.8548 42.8238C21.8751 43.4316 21.5548 43.9011 20.9071 43.9011C20.1821 43.9011 19.6478 43.1198 19.6188 42.3058Z" fill="#F6F6F6"/>
<path d="M24.475 44.0027C25.0383 44.0027 25.4836 43.6949 25.4836 42.8809V41.6418C25.4836 41.309 25.5243 41.216 25.6461 41.1801V41.127H25.1438V41.1801C25.3219 41.2285 25.4188 41.3418 25.4188 41.8035V42.8926C25.4188 43.6863 24.9532 43.9176 24.6047 43.9176C24.0782 43.9176 23.661 43.6465 23.661 42.8926V41.6418C23.661 41.309 23.7016 41.216 23.8235 41.1801V41.127H23.1672V41.1801C23.293 41.216 23.329 41.309 23.329 41.6418V42.9176C23.329 43.7316 23.8961 44.0027 24.475 44.0027Z" fill="#2B2B2B"/>
<path d="M26.6055 43.9621H27.432C28.4164 43.9621 28.7562 43.484 28.7484 43.0309C28.7445 42.634 28.4523 42.3059 27.7922 42.273C28.2539 42.1879 28.432 41.9371 28.432 41.6613C28.432 41.334 28.1773 41.127 27.5531 41.127H26.6055V41.1801C26.7273 41.216 26.768 41.309 26.768 41.6418V43.448C26.768 43.7801 26.7273 43.873 26.6055 43.9098V43.9621ZM27.1 43.5488V42.3262H27.5133C28.1203 42.3262 28.3797 42.666 28.3797 43.1316C28.3797 43.5816 28.1289 43.9012 27.4687 43.9012H27.3102C27.1359 43.9012 27.1 43.8402 27.1 43.5488ZM27.1 42.2652V41.1879H27.4078C27.825 41.1879 28.0641 41.3988 28.0641 41.7348C28.0641 42.0301 27.8773 42.2652 27.4766 42.2652H27.1Z" fill="#F6F6F6"/>
<path d="M29.7202 43.9621H31.7171L31.7499 43.4238L31.7054 43.4152C31.5593 43.7918 31.3124 43.9012 30.9233 43.9012H30.3968C30.2796 43.9012 30.2147 43.8363 30.2147 43.7191V42.4754H30.7327C31.1944 42.4754 31.3124 42.5691 31.3608 42.7512H31.4093V42.1395H31.3608C31.3124 42.3215 31.1944 42.4152 30.7327 42.4152H30.2147V41.1879H30.8101C31.2233 41.1879 31.4624 41.309 31.6038 41.666L31.6483 41.6535L31.6038 41.127H29.7202V41.1801C29.8421 41.216 29.8827 41.309 29.8827 41.6418V43.448C29.8827 43.7801 29.8421 43.873 29.7202 43.9098V43.9621Z" fill="#F6F6F6"/>
<path d="M34.8809 43.9941H34.9332V41.6418C34.9332 41.309 34.9699 41.216 35.0949 41.1801V41.127H34.5848V41.1801C34.7668 41.2285 34.8645 41.3418 34.8645 41.8035V43.4191L33.0941 41.127H32.6973V41.1801C32.8598 41.216 32.9082 41.309 32.9082 41.6418V43.448C32.9082 43.7801 32.8676 43.873 32.7465 43.9098V43.9621H33.2527V43.9098C33.0699 43.8605 32.973 43.7473 32.973 43.2855V41.5121L34.8809 43.9941Z" fill="#2B2B2B"/>
<path d="M39.1171 44.0027C39.571 44.0027 39.9554 43.8894 40.146 43.7839L40.2109 43.2573L40.1664 43.2534C40.0078 43.6909 39.6679 43.9214 39.2304 43.9214C38.3882 43.9214 37.9265 43.1925 37.9304 42.4308C37.9304 41.605 38.4289 41.1753 39.0726 41.1753C39.5546 41.1753 39.939 41.423 40.0968 41.7909L40.1375 41.7831L40.1218 41.3011C39.9632 41.2003 39.5585 41.0988 39.2101 41.0988C38.2585 41.0988 37.5906 41.7386 37.5906 42.6011C37.5906 43.4839 38.1859 44.0027 39.1171 44.0027Z" fill="#2B2B2B"/>
<path d="M41.2229 43.9621H41.8792V43.9098C41.7534 43.873 41.7174 43.7801 41.7174 43.448V42.4918H43.2604V43.448C43.2604 43.7801 43.2198 43.873 43.0987 43.9098V43.9621H43.7542V43.9098C43.6292 43.873 43.5924 43.7801 43.5924 43.448V41.6418C43.5924 41.309 43.6292 41.216 43.7542 41.1801V41.127H43.0987V41.1801C43.2198 41.216 43.2604 41.309 43.2604 41.6418V42.427H41.7174V41.6418C41.7174 41.309 41.7534 41.216 41.8792 41.1801V41.127H41.2229V41.1801C41.3448 41.216 41.3854 41.309 41.3854 41.6418V43.448C41.3854 43.7801 41.3448 43.873 41.2229 43.9098V43.9621Z" fill="#F6F6F6"/>
<path d="M44.5244 43.962H44.9822V43.9097C44.8439 43.8808 44.8283 43.7472 44.933 43.4839L45.1721 42.8925H46.3143L46.5611 43.4878C46.6908 43.7917 46.7236 43.873 46.5979 43.9097V43.962H47.226V43.9097C47.1408 43.873 47.0432 43.7917 46.9182 43.4878L45.9213 41.0948L45.6182 41.2323L45.6541 41.3175C45.6869 41.3823 45.6908 41.4347 45.6627 41.5073L44.8643 43.4839C44.7393 43.7917 44.6377 43.873 44.5244 43.9097V43.962ZM45.1963 42.8323L45.7354 41.4995L46.29 42.8323H45.1963Z" fill="#F6F6F6"/>
<path d="M50.0932 43.9902C50.1745 43.9902 50.2799 43.9824 50.3401 43.9621V43.9137C50.3198 43.9176 50.2995 43.9176 50.2752 43.9176C50.1377 43.9176 50.0565 43.784 49.8627 43.298C49.6682 42.7996 49.5909 42.5527 49.0932 42.4879C49.6198 42.427 49.8948 42.1395 49.8948 41.759C49.8948 41.3988 49.6518 41.127 48.8299 41.127H48.0315V41.1801C48.1573 41.216 48.194 41.309 48.194 41.6418V43.448C48.194 43.7801 48.1573 43.873 48.0315 43.9098V43.9621H48.6877V43.9098C48.562 43.873 48.526 43.7801 48.526 43.448V42.5004H48.7854C49.2713 42.5004 49.3034 42.7832 49.5385 43.3426C49.7167 43.7637 49.7815 43.9902 50.0932 43.9902ZM48.526 42.4395V41.1957C48.5909 41.1918 48.6557 41.1879 48.7159 41.1879C49.3159 41.1879 49.5502 41.4918 49.5502 41.852C49.5502 42.1965 49.3315 42.4395 48.8659 42.4395H48.526Z" fill="#F6F6F6"/>
<path d="M51.1462 43.9621H53.0298L53.058 43.5043L53.0134 43.4965C52.872 43.8004 52.6939 43.8973 52.3048 43.8973H51.8228C51.7056 43.8973 51.6408 43.8324 51.6408 43.7152V41.6418C51.6408 41.309 51.6767 41.216 51.8025 41.1801V41.127H51.1462V41.1801C51.2681 41.216 51.3087 41.309 51.3087 41.6418V43.448C51.3087 43.7801 51.2681 43.873 51.1462 43.9098V43.9621Z" fill="#F6F6F6"/>
<path d="M53.9814 43.9621H55.9783L56.0111 43.4238L55.9666 43.4152C55.8205 43.7918 55.5736 43.9012 55.1846 43.9012H54.658C54.5408 43.9012 54.476 43.8363 54.476 43.7191V42.4754H54.9939C55.4557 42.4754 55.5736 42.5691 55.6221 42.7512H55.6705V42.1395H55.6221C55.5736 42.3215 55.4557 42.4152 54.9939 42.4152H54.476V41.1879H55.0713C55.4846 41.1879 55.7236 41.309 55.865 41.666L55.9096 41.6535L55.865 41.127H53.9814V41.1801C54.1033 41.216 54.1439 41.309 54.1439 41.6418V43.448C54.1439 43.7801 54.1033 43.873 53.9814 43.9098V43.9621Z" fill="#F6F6F6"/>
</svg>
